<svg width="68" height="73" viewBox="0 0 68 73" fill="none" xmlns="http://www.w3.org/2000/svg">
<path d="M1.86742 8.72347C1.69283 8.94165 1.60334 9.21882 1.61474 9.50605C1.62615 9.79329 1.73772 10.0721 1.92977 10.2933L13.0626 23.561C11.9412 25.3608 11.0577 27.2703 10.4231 29.2737L4.77478 28.6397C4.56838 28.6129 4.36117 28.6398 4.17303 28.7177C3.9849 28.7957 3.82214 28.9222 3.7004 29.085C3.56196 29.2707 3.48251 29.496 3.47186 29.733L2.86324 39.4192C2.84502 39.7381 2.95274 40.0576 3.16303 40.3082C3.37332 40.5588 3.66921 40.7204 3.98651 40.7578L9.58152 41.3859C10.0303 43.9337 10.8783 46.4169 12.0933 48.8085L7.87303 52.3498C7.63268 52.5515 7.48632 52.8453 7.46614 53.1664C7.44596 53.4875 7.55362 53.8098 7.76543 54.0623L14.1556 61.6778C14.3675 61.9302 14.6661 62.0922 14.9859 62.1281C15.3057 62.164 15.6203 62.0709 15.8607 61.8692L20.1094 58.3042C22.243 59.9021 24.5133 61.1817 26.9298 62.0608L26.5768 67.6798C26.5585 67.9988 26.6663 68.3183 26.8766 68.5689C27.0868 68.8195 27.3827 68.981 27.7 69.0185L37.3448 70.1011C37.5063 70.1219 37.6687 70.11 37.8225 70.0659C37.9762 70.0218 38.118 69.9465 38.2396 69.8445C38.3612 69.7425 38.4599 69.6159 38.53 69.4722C38.6001 69.3284 38.6401 69.1705 38.6477 69.0078L39.0041 63.3353C41.0845 63.059 43.1751 62.6554 45.1349 61.8408C45.1445 61.833 45.154 61.8251 45.1633 61.817L50.6548 68.3616C50.8201 68.5508 51.036 68.6878 51.2741 68.7545L61.3973 71.6154C61.5843 71.6677 61.7789 71.675 61.9648 71.6366C62.1508 71.5982 62.3229 71.5151 62.4668 71.3943C62.6108 71.2736 62.7224 71.1185 62.7926 70.942C62.8627 70.7656 62.8893 70.5727 62.8702 70.3795L61.8107 59.9132C61.7864 59.6672 61.689 59.4308 61.5313 59.2352L49.1753 44.5099C51.2229 39.2778 50.3129 32.9806 46.3091 28.209C40.5836 21.3857 30.639 20.2694 24.1422 25.7208C17.6455 31.1723 17.0179 41.1596 22.7434 47.983C24.2888 49.8248 26.1284 51.2315 28.1381 52.2263C28.284 52.3226 28.447 52.3875 28.6164 52.4168C28.7858 52.4461 28.9577 52.4391 29.1208 52.3964C29.2839 52.3536 29.4345 52.276 29.5626 52.1686C29.6907 52.0613 29.7935 51.9267 29.8642 51.7736C29.9349 51.6206 29.9719 51.4526 29.9727 51.2807C29.9735 51.1088 29.9382 50.9369 29.869 50.7763C29.7998 50.6158 29.6983 50.4702 29.5713 50.3492C29.4442 50.2283 29.2944 50.1346 29.1319 50.0744C27.4328 49.2333 25.8685 48.026 24.5561 46.462C21.4646 42.7776 20.5604 38.0396 21.7243 33.8836L43.4659 59.7942C41.5994 60.5018 39.6703 60.9613 37.6932 61.1402C37.4107 61.1609 37.1494 61.2819 36.9552 61.4819C36.7611 61.6819 36.6465 61.9481 36.6317 62.2336L36.2988 67.5316L29.0803 66.6944L29.4132 61.3964C29.4287 61.1194 29.3494 60.8408 29.1883 60.607C29.0273 60.3732 28.7942 60.1983 28.528 60.1114C25.7395 59.2184 23.0512 57.7965 20.6654 55.8606C20.4444 55.6883 20.1756 55.5938 19.9029 55.5925C19.6301 55.5913 19.3694 55.6833 19.1633 55.8536L15.1696 59.2048L10.3769 53.4931L14.3707 50.142C14.5769 49.9638 14.7124 49.7162 14.7541 49.4411C14.7959 49.1659 14.7413 48.88 14.5997 48.6318C13.1075 45.9461 12.174 43.0517 11.7788 40.1505C11.7394 39.8732 11.6076 39.6133 11.4053 39.4141C11.2031 39.2149 10.9425 39.0884 10.667 39.0556L5.36676 38.4337L5.82071 31.2092L11.096 31.8013C11.3797 31.8364 11.6618 31.7698 11.8925 31.6133C12.1232 31.4568 12.2877 31.2204 12.3571 30.9459C13.4903 26.7668 15.8347 22.9586 19.3496 20.0092C22.8645 17.0598 27.022 15.4123 31.3343 15.0221C31.6168 15.0014 31.8781 14.8804 32.0723 14.6804C32.2664 14.4804 32.381 14.2142 32.3958 13.9287L32.7287 8.63072L39.9223 9.43819L39.6143 14.7659C39.5988 15.0429 39.6781 15.3215 39.8392 15.5553C40.0003 15.7891 40.2333 15.964 40.4995 16.0509C43.288 16.9439 45.9764 18.3658 48.3621 20.3018C48.582 20.4843 48.8541 20.5877 49.1323 20.5943C49.4106 20.601 49.6779 20.5106 49.8892 20.3384L53.8829 16.9873L58.6755 22.6989L54.6818 26.0501C54.4783 26.2235 54.3424 26.4642 54.2962 26.7331C54.2501 27.0019 54.2965 27.283 54.4278 27.5305C55.9201 30.2162 56.8535 33.1107 57.2487 36.0119C57.2881 36.2891 57.4199 36.549 57.6222 36.7482C57.8245 36.9474 58.085 37.0739 58.3605 37.1067L63.6358 37.6989L63.2068 44.9531L57.9315 44.361C57.6103 44.3214 57.2928 44.4116 57.0488 44.6116C56.8049 44.8116 56.6544 45.1051 56.6306 45.4275C56.6068 45.75 56.7115 46.075 56.9218 46.331C57.1321 46.587 57.4306 46.7532 57.7519 46.7929L64.2527 47.5226C64.4142 47.5435 64.5767 47.5315 64.7304 47.4874C64.8841 47.4433 65.026 47.368 65.1476 47.266C65.2691 47.164 65.3679 47.0374 65.438 46.8937C65.5081 46.7499 65.5481 46.592 65.5556 46.4294L66.1643 36.7432C66.1825 36.4242 66.0748 36.1047 65.8645 35.8541C65.6542 35.6035 65.3583 35.442 65.041 35.4045L59.446 34.7765C58.9999 32.244 58.134 29.786 56.9308 27.4073L61.1794 23.8423C61.4198 23.6406 61.5662 23.3468 61.5863 23.0257C61.6065 22.7045 61.4989 22.3823 61.287 22.1298L54.8969 14.5143C54.685 14.2619 54.3863 14.0999 54.0666 14.064C53.7468 14.0281 53.4321 14.1212 53.1917 14.3229L48.9714 17.8641C46.8271 16.2522 44.5289 14.986 42.0977 14.1016L42.4507 8.48249C42.469 8.16351 42.3612 7.84405 42.151 7.59344C41.9407 7.34283 41.6448 7.18128 41.3275 7.14383L31.6827 6.06122C31.5212 6.04039 31.3588 6.05237 31.2051 6.09645C31.0513 6.14053 30.9095 6.21581 30.7879 6.31781C30.6664 6.41981 30.5676 6.54644 30.4975 6.69018C30.4274 6.83391 30.3874 6.99181 30.3798 7.15449L30.0234 12.8271C27.9402 13.1041 25.9064 13.6427 23.9391 14.4345L12.8063 1.16689C12.5944 0.91445 12.2957 0.75247 11.976 0.716576C11.6562 0.680683 11.3415 0.773815 11.1011 0.975491L2.03737 8.58087C1.97615 8.62271 1.91926 8.67045 1.86742 8.72347V8.72347ZM4.54128 9.72421L11.7923 3.63991L15.7861 8.3996L8.53514 14.4839L4.54128 9.72421ZM10.1327 16.3878L17.3837 10.3035L21.727 15.4796C20.3469 16.2118 18.9935 17.0636 17.752 18.1053C16.5106 19.147 15.4367 20.3319 14.476 21.5639L10.1327 16.3878ZM25.7398 27.6247C27.0234 26.5476 28.4763 25.8094 29.9893 25.3263L58.121 58.8524L50.87 64.9367L22.7383 31.4106C23.4768 30.0044 24.4561 28.7018 25.7398 27.6247ZM32.6008 24.7571C36.8958 24.3325 41.4048 26.0458 44.4963 29.7301C47.5835 33.4093 48.4612 38.1282 47.3032 42.2787L32.6008 24.7571ZM52.6942 66.6504L59.492 60.9464L60.3116 68.8258L52.6942 66.6504Z" fill="#fff"/>
</svg>